<svg width="70" height="33" viewBox="0 0 70 33" fill="none" xmlns="http://www.w3.org/2000/svg">
<path d="M10.0117 25.0723L16.2422 0.816406H19.5078L19.1426 7.06836L12.4824 32.0977H9.08789L10.0117 25.0723ZM5.34961 0.816406L10.3984 24.8789L10.8496 32.0977H7.24023L0 0.816406H5.34961ZM26.5762 24.8145L31.5605 0.816406H36.9316L29.6914 32.0977H26.082L26.5762 24.8145ZM20.7754 0.816406L26.9414 25.1367L27.8438 32.0977H24.4492L17.8965 7.06836L17.5527 0.816406H20.7754Z" fill="#6679C0"/>
<path d="M45.9551 8.85156V32.0977H40.7559V8.85156H45.9551ZM40.4121 2.75C40.4121 1.96224 40.6699 1.31055 41.1855 0.794922C41.7155 0.264974 42.446 0 43.377 0C44.2936 0 45.0169 0.264974 45.5469 0.794922C46.0768 1.31055 46.3418 1.96224 46.3418 2.75C46.3418 3.52344 46.0768 4.16797 45.5469 4.68359C45.0169 5.19922 44.2936 5.45703 43.377 5.45703C42.446 5.45703 41.7155 5.19922 41.1855 4.68359C40.6699 4.16797 40.4121 3.52344 40.4121 2.75ZM69.6094 27.9727V32.0977H52.293V27.9727H69.6094ZM69.1367 12.0742L54.0547 32.0977H50.7031V28.7676L65.6992 8.85156H69.1367V12.0742ZM67.1387 8.85156V12.9766H50.9609V8.85156H67.1387Z" fill="white"/>
</svg>
